<svg id="Layer_1" data-name="Layer 1" xmlns="http://www.w3.org/2000/svg" viewBox="0 0 942.07 203.59"><defs><style>.cls-1,.cls-9{fill:#67bc45;}.cls-2{fill:#006241;}.cls-3{fill:#059649;}.cls-4{fill:#026141;}.cls-5{fill:#00994a;}.cls-6{fill:#59b147;}.cls-7{font-size:178.95px;fill:#592a77;font-family:TimesNewRomanPSMT, Times New Roman;}.cls-8{letter-spacing:-0.06em;}.cls-9{font-size:31px;font-family:ArialMT, Arial;letter-spacing:0.1em;}.cls-10{letter-spacing:0.08em;}.cls-11{letter-spacing:0.1em;}</style></defs><path class="cls-1" d="M156,555.06c-20.58-29.53-91.06-20.8-91.06-20.8C81,539.4,88.62,554.39,92,562c20.36,44.52,58.62,36,58.62,36a41.32,41.32,0,0,0-3.73-10.27c-6.75-5.15-15.35-4.34-15.35-4.34a11.38,11.38,0,0,1,12.51-.57,71.68,71.68,0,0,0-5-6.81,24.79,24.79,0,0,0-13.76-3.25,11.5,11.5,0,0,1,9.16-1.89c-1.23-1.28-2.49-2.53-3.76-3.73a25.06,25.06,0,0,0-12.9-2.75,11.92,11.92,0,0,1,7.41-2.15c-2.61-2.2-5.22-4.24-7.73-6.09a24.73,24.73,0,0,0-7.06-.59,13.61,13.61,0,0,1,3.79-1.77,162.42,162.42,0,0,0-15.47-9.71c52.12,9.4,62.86,48.33,62.86,48.33C166,569.38,160.88,563.57,156,555.06Z" transform="translate(-40.96 -410.21)"/><path class="cls-2" d="M229.71,555.06c20.59-29.53,91.06-20.8,91.06-20.8-16.11,5.14-23.71,20.13-27.07,27.74-20.36,44.52-58.62,36-58.62,36a41.72,41.72,0,0,1,3.73-10.27c6.76-5.15,15.35-4.34,15.35-4.34a11.38,11.38,0,0,0-12.51-.57,73.45,73.45,0,0,1,5-6.81,24.79,24.79,0,0,1,13.76-3.25,11.5,11.5,0,0,0-9.16-1.89c1.23-1.28,2.49-2.53,3.77-3.73a25,25,0,0,1,12.89-2.75,11.91,11.91,0,0,0-7.4-2.15c2.6-2.2,5.22-4.24,7.73-6.09a24.66,24.66,0,0,1,7.05-.59,13.61,13.61,0,0,0-3.79-1.77A161.71,161.71,0,0,1,287,544.1c-52.13,9.4-62.87,48.33-62.87,48.33C219.65,569.38,224.79,563.57,229.71,555.06Z" transform="translate(-40.96 -410.21)"/><path class="cls-3" d="M227,539.47c8.4-47-65.88-104.92-65.88-104.92,10.28,19.94,3.35,41.13-.63,51.41-22.67,60.85,21.19,88.76,21.19,88.76a55.19,55.19,0,0,0,6.14-13.13c-1.51-11.16-10.33-18.46-10.33-18.46,8.5,1.74,11.33,7.68,12.27,11.19a95.71,95.71,0,0,0,1.68-11.08c-2.34-9.73-9.86-16-9.86-16a15.27,15.27,0,0,1,10.37,6.81c.05-2.35,0-4.7,0-7a33.11,33.11,0,0,0-9.52-14.66,15.71,15.71,0,0,1,9,4.92c-.39-4.51-.93-8.87-1.54-13a33.09,33.09,0,0,0-6.06-7.17A17.68,17.68,0,0,1,189,499.1a213.71,213.71,0,0,0-5.41-23.63c40.08,57.7,13.64,104.29,13.64,104.29C223,562.34,223.64,552.06,227,539.47Z" transform="translate(-40.96 -410.21)"/><path class="cls-4" d="M169.68,600.71s27.89-23.27,49.52,0h-5.07s-14.77-13.73-37.74,0Z" transform="translate(-40.96 -410.21)"/><circle class="cls-5" cx="21.48" cy="61.04" r="21.48"/><circle class="cls-1" cx="94.26" cy="104.89" r="10.44"/><circle class="cls-6" cx="186.69" cy="52.68" r="15.39"/><text class="cls-7" transform="translate(305.79 148.72)">Chenni<tspan class="cls-8" x="516.93" y="0">’</tspan><tspan x="566.64" y="0">s</tspan></text><text class="cls-9" transform="translate(385.45 183.99)">Rejuvenate with nature<tspan class="cls-10" x="383.91" y="0">’</tspan><tspan class="cls-11" x="393.27" y="0">s gift</tspan></text></svg>